<svg width="16" height="16" viewBox="0 0 16 16" fill="none" xmlns="http://www.w3.org/2000/svg">
<path d="M3.57812 16H0V5H3.57812V16ZM8.57812 7.10254C9.01439 6.51629 10.3374 5.00007 12.4229 5C12.6669 5 12.8754 5.02743 13.0654 5.06543C13.1142 5.0734 13.1621 5.08182 13.21 5.09277C13.25 5.10377 13.2862 5.11691 13.3242 5.12891C14.8611 5.52997 16 6.91521 16 8.57715V16H12.4229V9C11.2845 6.24044 8.59047 9.98282 8.57812 10V16H5V5H8.57812V7.10254ZM1.75 0C2.7165 0 3.5 0.783502 3.5 1.75C3.5 2.7165 2.7165 3.5 1.75 3.5C0.783502 3.5 0 2.7165 0 1.75C2.81866e-08 0.783502 0.783502 2.81862e-08 1.75 0Z" fill="#B0B8BC"/>
</svg>
