<svg width="16" height="16" viewBox="0 0 16 16" fill="none" xmlns="http://www.w3.org/2000/svg">
<path d="M11 0C13.761 0 16 2.239 16 5V11C16 13.761 13.761 16 11 16H5C2.239 16 0 13.761 0 11V5C0 2.239 2.239 0 5 0H11ZM5 1.5C3.07 1.5 1.5 3.07 1.5 5V11C1.5 12.93 3.07 14.5 5 14.5H11C12.93 14.5 14.5 12.93 14.5 11V5C14.5 3.07 12.93 1.5 11 1.5H5ZM8 4C10.209 4 12 5.791 12 8C12 10.209 10.209 12 8 12C5.791 12 4 10.209 4 8C4 5.791 5.791 4 8 4ZM8 5.5C6.622 5.5 5.5 6.621 5.5 8C5.5 9.378 6.622 10.5 8 10.5C9.378 10.5 10.5 9.378 10.5 8C10.5 6.621 9.378 5.5 8 5.5ZM12.2998 3.16699C12.5942 3.16699 12.833 3.40583 12.833 3.7002C12.8329 3.99448 12.5941 4.2334 12.2998 4.2334C12.0056 4.23327 11.7667 3.9944 11.7666 3.7002C11.7666 3.4059 12.0055 3.16712 12.2998 3.16699Z" fill="#B0B8BC"/>
</svg>
