<svg width="40" height="40" viewBox="0 0 40 40" fill="none" xmlns="http://www.w3.org/2000/svg">
<rect width="40" height="40" rx="4" fill="#E6EDF5"/>
<g clip-path="url(#clip0_0_30)">
<path fill-rule="evenodd" clip-rule="evenodd" d="M27.5 20C27.5 20.3452 27.2202 20.625 26.875 20.625H13.125C12.7798 20.625 12.5 20.3452 12.5 20C12.5 19.6548 12.7798 19.375 13.125 19.375H26.875C27.2202 19.375 27.5 19.6548 27.5 20ZM13.125 15.625H26.875C27.2202 15.625 27.5 15.3452 27.5 15C27.5 14.6548 27.2202 14.375 26.875 14.375H13.125C12.7798 14.375 12.5 14.6548 12.5 15C12.5 15.3452 12.7798 15.625 13.125 15.625ZM26.875 24.375H13.125C12.7798 24.375 12.5 24.6548 12.5 25C12.5 25.3452 12.7798 25.625 13.125 25.625H26.875C27.2202 25.625 27.5 25.3452 27.5 25C27.5 24.6548 27.2202 24.375 26.875 24.375Z" fill="#0D141C"/>
</g>
<defs>
<clipPath id="clip0_0_30">
<rect width="20" height="20" fill="white" transform="translate(10 10)"/>
</clipPath>
</defs>
</svg>
